<svg width="7562" height="9767" viewBox="0 0 7562 9767" fill="none" xmlns="http://www.w3.org/2000/svg">
<g clip-path="url(#clip0_126_5478)">
<line x1="6812.5" y1="8947.05" x2="6804.5" y2="8873.05" stroke="#27205A"/>
<path fill-rule="evenodd" clip-rule="evenodd" d="M3205.75 295.5L4587.86 1061.29L4723.07 1304.26V3225.22V3236.85L4729.72 3246.38L5140.34 3835.28L5136.51 4514.08L4561.01 5017.42L4548.47 5028.4L4548.37 5045.06L4542.84 6027.25L4616.83 6027.66L4622.28 5062.15L5135.96 4612.87L5129.75 5713.66L5203.75 5714.08L5210.32 4547.83L5211.35 4546.93L5210.34 4545.77L5214.4 3823.95L5214.47 3812.21L5207.75 3802.58L4797.07 3213.59V1437.24L5475.85 2657.02L5547.01 3933.01L5895.8 4336.95L5651.25 3933.01V3239.39L5739.45 3852.82L7318 5694.13V6410.7H6684.64L6490.77 6210.96L6479.87 6199.73H6464.22H6175.71C6163.42 6159.65 6126.12 6130.5 6082 6130.5C6027.88 6130.5 5984 6174.38 5984 6228.5C5984 6282.62 6027.88 6326.5 6082 6326.5C6119.81 6326.5 6152.62 6305.09 6168.96 6273.73H6307.69V7385.07V7402.98L6321.98 7413.79L6809.02 7782.03L6788.01 9495.02L6790.58 9495.05L6790.52 9500.66L2375.88 7828.12L1589.11 7955.42L1309.08 7278.98L1291.82 6461.5H1563.15L1747.77 6772.36L1757.65 6789H1777H2292V6721H1796.35L1611.73 6410.14L1601.85 6393.5H1582.5H942.519L653 5694.13L859.465 3933.01L1312.48 3316.57L1434.76 3933.01L1843.68 4167.56H2099.26L1843.68 2657.02L2215.52 3316.57L3778.03 1580.51L3205.75 295.5ZM970.669 6461.5L1230.03 7088.03L1216.8 6461.5H970.669ZM6862.19 9527.81L7318 9700.5V6484.7H6668.99H6653.34L6642.44 6473.47L6448.57 6273.73H6379.69V7367.16L6810.11 7692.6L6814.92 7300.72C6782.58 7286.46 6760 7254.12 6760 7216.5C6760 7165.69 6801.19 7124.5 6852 7124.5C6902.81 7124.5 6944 7165.69 6944 7216.5C6944 7251.08 6924.93 7281.2 6896.73 7296.91C6894.43 7298.54 6892.01 7300.01 6889.5 7301.33L6862.19 9527.81Z" fill="#B54ED9"/>
<path d="M6180 8726.5L5103.48 8493.97L2340 7272.17V6882.27L1766.66 6106.5L1486 4704.28L1766.66 5137.27L2630.68 5264.57V3926.5L2748.96 4448.7L4346.7 3926.5L5510.43 5439.97V6574.57L6180 8726.5Z" fill="url(#paint0_linear_126_5478)"/>
<path d="M3710 5644.5L2999.5 8202L4535.5 8646.5L3710 5644.5Z" fill="#27205A"/>
<circle cx="3709.5" cy="6030" r="743.5" fill="#27205A"/>
<path d="M3158.5 1251.5L2252 51V712.5V1864L2497 2550L3158.5 1251.5Z" fill="#B54ED9"/>
<path d="M6196.5 3653V2917.5L7078.5 4633L6196.5 3653Z" fill="#B54ED9"/>
<path d="M3158.5 1251.5L2252 51V712.5V1864L2497 2550L3158.5 1251.5Z" stroke="#27205A"/>
<path d="M6196.5 3653V2917.5L7078.5 4633L6196.5 3653Z" stroke="#27205A"/>
<path d="M365.5 4535V3457L145 3677.5L365.5 4535Z" fill="url(#paint1_linear_126_5478)"/>
<path d="M3113 3708.5V3996.5L3874.5 3525.5L3158 3750.5L3113 3708.5Z" fill="url(#paint2_linear_126_5478)"/>
<path d="M3000 8202.22L3099 7842L2623 7716L3000 8202.22Z" fill="#B54ED9"/>
</g>
<defs>
<linearGradient id="paint0_linear_126_5478" x1="3833" y1="3926.5" x2="3833" y2="8726.5" gradientUnits="userSpaceOnUse">
<stop stop-color="#3CC8BB"/>
<stop offset="0.825" stop-color="#B54ED9"/>
</linearGradient>
<linearGradient id="paint1_linear_126_5478" x1="255.25" y1="3457" x2="255.25" y2="4535" gradientUnits="userSpaceOnUse">
<stop stop-color="#3CC8BB"/>
<stop offset="0.825" stop-color="#B54ED9"/>
</linearGradient>
<linearGradient id="paint2_linear_126_5478" x1="3493.75" y1="3525.5" x2="3493.75" y2="3996.5" gradientUnits="userSpaceOnUse">
<stop stop-color="#3CC8BB"/>
<stop offset="0.825" stop-color="#B54ED9"/>
</linearGradient>
<clipPath id="clip0_126_5478">
<rect width="7562" height="9767" fill="white"/>
</clipPath>
</defs>
</svg>
